<svg id="Capa_1" enable-background="new 0 0 512 512" height="512" viewBox="0 0 512 512" width="512" xmlns="http://www.w3.org/2000/svg"><g><path d="m425 89.619-1 1.7v121.681h26.854c8.352 0 15.146 6.795 15.146 15.146v161.834l1 1.575c21.593-36.499 34-79.075 34-124.556 0-69.785-29.178-132.757-76-177.38z" fill="#8ac9fe"/><path d="m88 94.819-1-5.199c-46.822 44.622-76 107.594-76 177.38s29.178 132.758 76 177.381l1-5.887z" fill="#8ac9fe"/><path d="m450.854 212h-26.854v233.3c16.72-15.763 31.229-33.847 43-53.745v-163.409c0-8.917-7.229-16.146-16.146-16.146z" fill="#60b7ff"/><g><path d="m408.854 0h-305.708c-8.917 0-16.146 7.229-16.146 16.146v428.234c43.961 41.898 103.477 67.62 169 67.62s125.039-25.722 169-67.619v-428.235c0-8.917-7.229-16.146-16.146-16.146z" fill="#26a6fe"/></g><path d="m149 449.437v-1.769l-12.804 6.26c-3.322 1.624-7.196-.794-7.196-4.492v-316.775c0-22.037 8.328-42.125 22-57.304v-59.21c0-8.918 7.229-16.147 16.146-16.147h-64c-8.917 0-16.146 7.229-16.146 16.146v428.234c18.749 17.868 40.334 32.781 64 44.025v-34.977c-1.191-.892-2-2.305-2-3.991z" fill="#0593fc"/><g fill="#0182fc"><path d="m284.593 132.661c0 16.488-13.414 29.902-29.901 29.902h20c16.487 0 29.901-13.414 29.901-29.902 0-19.664-15.997-35.661-35.661-35.661h-20c19.664 0 35.661 15.998 35.661 35.661z"/><path d="m275.313 292.573h20c18.575 0 33.687-17.946 33.687-40.004s-15.111-40.005-33.687-40.005h-20c18.575 0 33.687 17.946 33.687 40.005s-15.111 40.004-33.687 40.004z"/><path d="m149 132.661c0-47.309 38.352-85.661 85.661-85.661h-20c-47.309 0-85.661 38.352-85.661 85.661v316.776c0 3.698 3.875 6.116 7.196 4.492l12.804-6.26z"/><path d="m231.222 335.977 13.473-40c.685-2.034 2.592-3.404 4.738-3.404h-20c-2.146 0-4.053 1.37-4.738 3.404l-13.473 40c-1.091 3.241 1.319 6.596 4.738 6.596h20c-3.419 0-5.83-3.356-4.738-6.596z"/></g><path d="m340.998 177.196c8.58-12.734 13.595-28.059 13.595-44.534 0-47.234-38.428-85.661-85.661-85.661h-34.271c-47.309-.001-85.661 38.351-85.661 85.66v316.776c0 3.698 3.875 6.116 7.196 4.492l40-19.558c1.716-.839 2.804-2.582 2.804-4.492v-217.316h96.313c18.575 0 33.687 17.946 33.687 40.005s-15.111 40.004-33.687 40.004h-45.88c-2.146 0-4.053 1.37-4.738 3.404l-13.473 40c-1.091 3.241 1.319 6.596 4.738 6.596h59.353c46.145 0 83.687-40.376 83.687-90.005 0-31.511-15.139-59.288-38.002-75.371zm-66.307-14.633h-75.691v-29.902c0-19.663 15.998-35.661 35.661-35.661h34.271c19.664 0 35.661 15.998 35.661 35.661 0 16.488-13.414 29.902-29.902 29.902z" fill="#fff"/><g fill="#eaf6ff"><path d="m295.313 292.573h24c18.575 0 33.687-17.946 33.687-40.004s-15.111-40.005-33.687-40.005h-24c18.575 0 33.687 17.946 33.687 40.005s-15.111 40.004-33.687 40.004z"/><path d="m304.593 132.661c0 16.488-13.414 29.902-29.901 29.902h24c16.487 0 29.901-13.414 29.901-29.902 0-19.664-15.997-35.661-35.661-35.661h-24c19.664 0 35.661 15.998 35.661 35.661z"/><path d="m255.222 335.977 13.473-40c.685-2.034 2.592-3.404 4.738-3.404h-24c-2.146 0-4.053 1.37-4.738 3.404l-13.473 40c-1.091 3.241 1.319 6.596 4.738 6.596h24c-3.419 0-5.83-3.356-4.738-6.596z"/><path d="m173 132.661c0-47.309 38.352-85.661 85.661-85.661h-24c-47.309 0-85.661 38.352-85.661 85.661v316.776c0 3.698 3.875 6.116 7.196 4.492l16.804-8.216z"/></g></g></svg>